<?xml version="1.0" encoding="UTF-8" standalone="no"?>
<!DOCTYPE svg PUBLIC "-//W3C//DTD SVG 1.1//EN" "http://www.w3.org/Graphics/SVG/1.1/DTD/svg11.dtd">
<svg width="100%" height="100%" viewBox="0 0 2084 2084" version="1.1" xmlns="http://www.w3.org/2000/svg" xmlns:xlink="http://www.w3.org/1999/xlink" xml:space="preserve" xmlns:serif="http://www.serif.com/" style="fill-rule:evenodd;clip-rule:evenodd;stroke-linejoin:round;stroke-miterlimit:2;">
    <g transform="matrix(1,0,0,1,-9.49915,-17.0525)">
        <path d="M2026.3,571.152L2026.3,1546.29C2026.3,1815.38 1807.83,2033.85 1538.73,2033.85L563.599,2033.85C294.503,2033.85 76.032,1815.38 76.032,1546.29L76.032,571.152C76.032,302.056 294.503,83.585 563.599,83.585L1538.73,83.585C1807.83,83.585 2026.3,302.056 2026.3,571.152Z" style="fill:rgb(33,37,41);"/>
    </g>
    <g transform="matrix(1,0,0,1,-104.993,-36.4429)">
        <g transform="matrix(4.39856,0,0,4.39856,-2817.51,-2119.02)">
            <path d="M751.909,706.415C757.598,700.903 763.42,696.903 769.376,694.415C775.331,691.926 782.576,690.681 791.109,690.681C800.887,690.681 809.998,692.592 818.443,696.415C826.887,700.237 834.22,705.437 840.443,712.015C846.665,718.592 851.554,726.237 855.109,734.948C858.665,743.659 860.443,752.903 860.443,762.681C860.443,772.637 858.487,781.97 854.576,790.681C850.665,799.392 845.331,807.037 838.576,813.615C831.82,820.192 823.909,825.348 814.843,829.081C805.776,832.815 795.998,834.681 785.509,834.681C776.087,834.681 767.287,832.77 759.109,828.948C750.931,825.126 743.82,819.881 737.776,813.215C731.731,806.548 726.931,798.815 723.376,790.015C719.82,781.215 718.043,771.748 718.043,761.615L718.043,647.481L751.909,643.215L751.909,706.415ZM791.909,803.748C796.887,803.748 801.554,802.592 805.909,800.281C810.265,797.97 814.131,794.948 817.509,791.215C820.887,787.481 823.554,783.126 825.509,778.148C827.465,773.17 828.443,768.015 828.443,762.681C828.443,757.348 827.465,752.237 825.509,747.348C823.554,742.459 820.931,738.103 817.643,734.281C814.354,730.459 810.443,727.392 805.909,725.081C801.376,722.77 796.62,721.615 791.643,721.615C786.131,721.615 780.976,722.726 776.176,724.948C771.376,727.17 767.154,730.148 763.509,733.881C759.865,737.615 757.02,741.97 754.976,746.948C752.931,751.926 751.909,757.17 751.909,762.681C751.909,768.192 752.931,773.437 754.976,778.415C757.02,783.392 759.82,787.748 763.376,791.481C766.931,795.215 771.154,798.192 776.043,800.415C780.931,802.637 786.22,803.748 791.909,803.748Z" style="fill:rgb(229,149,91);fill-rule:nonzero;"/>
        </g>
        <g transform="matrix(4.39856,0,0,4.39856,-2817.51,-2119.02)">
            <path d="M1084.44,762.681C1084.44,772.637 1082.44,782.015 1078.44,790.815C1074.44,799.615 1069.02,807.259 1062.18,813.748C1055.33,820.237 1047.33,825.348 1038.18,829.081C1029.02,832.815 1019.38,834.681 1009.24,834.681C998.754,834.681 988.976,832.77 979.909,828.948C970.843,825.126 962.887,819.926 956.043,813.348C949.198,806.77 943.82,799.126 939.909,790.415C935.998,781.703 934.043,772.459 934.043,762.681C934.043,752.726 936.043,743.392 940.043,734.681C944.043,725.97 949.465,718.326 956.309,711.748C963.154,705.17 971.109,700.015 980.176,696.281C989.243,692.548 998.931,690.681 1009.24,690.681C1019.73,690.681 1029.55,692.592 1038.71,696.415C1047.87,700.237 1055.82,705.437 1062.58,712.015C1069.33,718.592 1074.66,726.237 1078.58,734.948C1082.49,743.659 1084.44,752.903 1084.44,762.681ZM1009.24,803.748C1014.93,803.748 1020.4,802.681 1025.64,800.548C1030.89,798.415 1035.51,795.526 1039.51,791.881C1043.51,788.237 1046.66,783.926 1048.98,778.948C1051.29,773.97 1052.44,768.548 1052.44,762.681C1052.44,756.815 1051.29,751.392 1048.98,746.415C1046.66,741.437 1043.51,737.126 1039.51,733.481C1035.51,729.837 1030.89,726.948 1025.64,724.815C1020.4,722.681 1014.84,721.615 1008.98,721.615C1003.47,721.615 998.131,722.637 992.976,724.681C987.82,726.726 983.243,729.57 979.243,733.215C975.243,736.859 972.043,741.215 969.643,746.281C967.243,751.348 966.043,756.815 966.043,762.681C966.043,768.37 967.198,773.703 969.509,778.681C971.82,783.659 974.976,788.015 978.976,791.748C982.976,795.481 987.554,798.415 992.709,800.548C997.865,802.681 1003.38,803.748 1009.24,803.748Z" style="fill:rgb(229,149,91);fill-rule:nonzero;"/>
        </g>
        <g transform="matrix(5.44984,0,0,5.44984,-2466.48,-1632.51)">
            <path d="M646.839,471.622L660.785,470.304C660.245,470.438 659.721,470.582 659.219,470.738C657.596,471.243 649.426,471.042 647.487,472.151C649.426,471.042 657.596,471.243 659.219,470.738C659.721,470.582 660.245,470.438 660.785,470.304L674.173,469.039L674.173,580.957L646.839,582.679L646.839,471.622Z" style="fill:rgb(229,149,91);"/>
        </g>
        <g transform="matrix(0.414755,0,0,0.414755,956.184,579.386)">
            <path d="M662.13,437.5C662.13,581.503 543.633,700 399.63,700C255.627,700 137.13,581.503 137.13,437.5C137.13,360.047 176.498,276.971 224.742,204.242L224.746,204.244L349.63,287.5L458.451,58.976L458.454,58.974C549.63,150 662.13,275 662.13,437.5Z" style="fill:white;fill-rule:nonzero;stroke:black;stroke-opacity:0;stroke-width:7.53px;"/>
        </g>
        <g transform="matrix(4.78778,0,0,4.78778,-2318.12,-2979.48)">
            <circle cx="822.304" cy="879.923" r="19.122" style="fill:white;"/>
        </g>
    </g>
</svg>
