<?xml version="1.0" encoding="UTF-8" standalone="no"?>
<!DOCTYPE svg PUBLIC "-//W3C//DTD SVG 1.1//EN" "http://www.w3.org/Graphics/SVG/1.1/DTD/svg11.dtd">
<svg width="100%" height="100%" viewBox="0 0 694 248" version="1.1" xmlns="http://www.w3.org/2000/svg" xmlns:xlink="http://www.w3.org/1999/xlink" xml:space="preserve" xmlns:serif="http://www.serif.com/" style="fill-rule:evenodd;clip-rule:evenodd;stroke-linejoin:round;stroke-miterlimit:2;">
    <g id="Artboard1" transform="matrix(1,0,0,1,-171.358,-390.576)">
        <rect x="171.358" y="390.576" width="693.794" height="247.498" style="fill:none;"/>
        <g transform="matrix(0.807099,0,0,0.807099,-64.0529,-88.6941)">
            <path d="M472.443,692.281C467.643,688.37 462.176,685.215 456.043,682.815C449.909,680.415 443.02,679.215 435.376,679.215C427.376,679.215 420.043,680.859 413.376,684.148C406.709,687.437 400.931,691.837 396.043,697.348C391.154,702.859 387.376,709.215 384.709,716.415C382.043,723.615 380.709,731.126 380.709,738.948C380.709,747.126 382.131,754.859 384.976,762.148C387.82,769.437 391.776,775.792 396.843,781.215C401.909,786.637 407.865,790.903 414.709,794.015C421.554,797.126 428.976,798.681 436.976,798.681C444.443,798.681 451.02,797.126 456.709,794.015C462.398,790.903 467.731,787.392 472.709,783.481L467.909,827.748C464.354,829.703 459.82,831.348 454.309,832.681C448.798,834.015 443.287,834.681 437.776,834.681C423.909,834.681 411.198,832.192 399.643,827.215C388.087,822.237 378.176,815.437 369.909,806.815C361.643,798.192 355.243,788.059 350.709,776.415C346.176,764.77 343.909,752.281 343.909,738.948C343.909,725.259 346.265,712.592 350.976,700.948C355.687,689.303 362.22,679.215 370.576,670.681C378.931,662.148 388.754,655.437 400.043,650.548C411.331,645.659 423.554,643.215 436.709,643.215C441.331,643.215 446.531,643.748 452.309,644.815C458.087,645.881 462.843,647.57 466.576,649.881L472.443,692.281Z" style="fill:white;fill-rule:nonzero;"/>
            <path d="M604.443,830.415L573.509,833.615L573.509,821.881C563.376,830.415 552.087,834.681 539.643,834.681C531.82,834.681 524.754,833.526 518.443,831.215C512.131,828.903 506.754,825.703 502.309,821.615C497.865,817.526 494.443,812.548 492.043,806.681C489.643,800.815 488.443,794.237 488.443,786.948C488.443,780.903 489.598,775.126 491.909,769.615C494.22,764.103 497.465,759.215 501.643,754.948C505.82,750.681 510.709,747.259 516.309,744.681C521.909,742.103 527.998,740.815 534.576,740.815C541.509,740.815 547.731,741.437 553.243,742.681C558.754,743.926 564.887,746.326 571.643,749.881C571.998,748.281 572.22,746.815 572.309,745.481C572.398,744.148 572.443,742.592 572.443,740.815C572.265,733.348 570.043,727.837 565.776,724.281C561.509,720.726 554.043,718.948 543.376,718.948C536.62,718.948 530.087,719.659 523.776,721.081C517.465,722.503 511.198,724.459 504.976,726.948L514.309,694.415C520.531,693.17 526.931,692.237 533.509,691.615C540.087,690.992 546.665,690.681 553.243,690.681C560.709,690.681 567.554,691.57 573.776,693.348C579.998,695.126 585.376,697.615 589.909,700.815C594.443,704.015 597.998,707.926 600.576,712.548C603.154,717.17 604.443,722.415 604.443,728.281L604.443,830.415ZM547.109,806.415C550.309,806.415 553.42,805.926 556.443,804.948C559.465,803.97 562.131,802.637 564.443,800.948C566.754,799.259 568.576,797.215 569.909,794.815C571.243,792.415 571.909,789.792 571.909,786.948C571.909,784.103 571.198,781.481 569.776,779.081C568.354,776.681 566.487,774.637 564.176,772.948C561.865,771.259 559.198,769.926 556.176,768.948C553.154,767.97 550.043,767.481 546.843,767.481C543.82,767.481 540.843,767.97 537.909,768.948C534.976,769.926 532.354,771.259 530.043,772.948C527.731,774.637 525.865,776.681 524.443,779.081C523.02,781.481 522.309,784.103 522.309,786.948C522.309,789.792 522.976,792.415 524.309,794.815C525.643,797.215 527.465,799.259 529.776,800.948C532.087,802.637 534.754,803.97 537.776,804.948C540.798,805.926 543.909,806.415 547.109,806.415Z" style="fill:white;fill-rule:nonzero;"/>
            <path d="M699.909,726.681C693.154,726.681 687.42,727.659 682.709,729.615C677.998,731.57 674.176,734.237 671.243,737.615C668.309,740.992 666.131,744.992 664.709,749.615C663.287,754.237 662.576,759.303 662.576,764.815L662.576,830.415L628.709,832.548L628.709,694.948L660.709,691.748L660.709,716.281L661.243,716.281C665.687,707.926 671.643,701.57 679.109,697.215C686.576,692.859 697.42,690.681 711.643,690.681L699.909,726.681Z" style="fill:white;fill-rule:nonzero;"/>
            <path d="M751.909,706.415C757.598,700.903 763.42,696.903 769.376,694.415C775.331,691.926 782.576,690.681 791.109,690.681C800.887,690.681 809.998,692.592 818.443,696.415C826.887,700.237 834.22,705.437 840.443,712.015C846.665,718.592 851.554,726.237 855.109,734.948C858.665,743.659 860.443,752.903 860.443,762.681C860.443,772.637 858.487,781.97 854.576,790.681C850.665,799.392 845.331,807.037 838.576,813.615C831.82,820.192 823.909,825.348 814.843,829.081C805.776,832.815 795.998,834.681 785.509,834.681C776.087,834.681 767.287,832.77 759.109,828.948C750.931,825.126 743.82,819.881 737.776,813.215C731.731,806.548 726.931,798.815 723.376,790.015C719.82,781.215 718.043,771.748 718.043,761.615L718.043,647.481L751.909,643.215L751.909,706.415ZM791.909,803.748C796.887,803.748 801.554,802.592 805.909,800.281C810.265,797.97 814.131,794.948 817.509,791.215C820.887,787.481 823.554,783.126 825.509,778.148C827.465,773.17 828.443,768.015 828.443,762.681C828.443,757.348 827.465,752.237 825.509,747.348C823.554,742.459 820.931,738.103 817.643,734.281C814.354,730.459 810.443,727.392 805.909,725.081C801.376,722.77 796.62,721.615 791.643,721.615C786.131,721.615 780.976,722.726 776.176,724.948C771.376,727.17 767.154,730.148 763.509,733.881C759.865,737.615 757.02,741.97 754.976,746.948C752.931,751.926 751.909,757.17 751.909,762.681C751.909,768.192 752.931,773.437 754.976,778.415C757.02,783.392 759.82,787.748 763.376,791.481C766.931,795.215 771.154,798.192 776.043,800.415C780.931,802.637 786.22,803.748 791.909,803.748Z" style="fill:rgb(229,149,91);fill-rule:nonzero;"/>
            <path d="M1084.44,762.681C1084.44,772.637 1082.44,782.015 1078.44,790.815C1074.44,799.615 1069.02,807.259 1062.18,813.748C1055.33,820.237 1047.33,825.348 1038.18,829.081C1029.02,832.815 1019.38,834.681 1009.24,834.681C998.754,834.681 988.976,832.77 979.909,828.948C970.843,825.126 962.887,819.926 956.043,813.348C949.198,806.77 943.82,799.126 939.909,790.415C935.998,781.703 934.043,772.459 934.043,762.681C934.043,752.726 936.043,743.392 940.043,734.681C944.043,725.97 949.465,718.326 956.309,711.748C963.154,705.17 971.109,700.015 980.176,696.281C989.243,692.548 998.931,690.681 1009.24,690.681C1019.73,690.681 1029.55,692.592 1038.71,696.415C1047.87,700.237 1055.82,705.437 1062.58,712.015C1069.33,718.592 1074.66,726.237 1078.58,734.948C1082.49,743.659 1084.44,752.903 1084.44,762.681ZM1009.24,803.748C1014.93,803.748 1020.4,802.681 1025.64,800.548C1030.89,798.415 1035.51,795.526 1039.51,791.881C1043.51,788.237 1046.66,783.926 1048.98,778.948C1051.29,773.97 1052.44,768.548 1052.44,762.681C1052.44,756.815 1051.29,751.392 1048.98,746.415C1046.66,741.437 1043.51,737.126 1039.51,733.481C1035.51,729.837 1030.89,726.948 1025.64,724.815C1020.4,722.681 1014.84,721.615 1008.98,721.615C1003.47,721.615 998.131,722.637 992.976,724.681C987.82,726.726 983.243,729.57 979.243,733.215C975.243,736.859 972.043,741.215 969.643,746.281C967.243,751.348 966.043,756.815 966.043,762.681C966.043,768.37 967.198,773.703 969.509,778.681C971.82,783.659 974.976,788.015 978.976,791.748C982.976,795.481 987.554,798.415 992.709,800.548C997.865,802.681 1003.38,803.748 1009.24,803.748Z" style="fill:rgb(229,149,91);fill-rule:nonzero;"/>
            <g transform="matrix(1.239,0,0,1.239,79.8054,110.606)">
                <path d="M646.839,471.622L660.785,470.304C660.245,470.438 659.721,470.582 659.219,470.738C657.596,471.243 649.426,471.042 647.487,472.151C649.426,471.042 657.596,471.243 659.219,470.738C659.721,470.582 660.245,470.438 660.785,470.304L674.173,469.039L674.173,580.957L646.839,582.679L646.839,471.622Z" style="fill:rgb(229,149,91);"/>
            </g>
            <g transform="matrix(0.0942932,0,0,0.0942932,857.938,613.475)">
                <path d="M662.13,437.5C662.13,581.503 543.633,700 399.63,700C255.627,700 137.13,581.503 137.13,437.5C137.13,360.047 176.498,276.971 224.742,204.242L224.746,204.244L349.63,287.5L458.451,58.976L458.454,58.974C549.63,150 662.13,275 662.13,437.5Z" style="fill:white;fill-rule:nonzero;stroke:black;stroke-opacity:0;stroke-width:13.14px;"/>
            </g>
            <g transform="matrix(1.08849,0,0,1.08849,113.534,-195.624)">
                <circle cx="822.304" cy="879.923" r="19.122" style="fill:white;"/>
            </g>
        </g>
    </g>
</svg>
